<?xml version="1.0" standalone="no"?>
<!DOCTYPE svg PUBLIC "-//W3C//DTD SVG 20010904//EN"
 "http://www.w3.org/TR/2001/REC-SVG-20010904/DTD/svg10.dtd">
<svg version="1.0" xmlns="http://www.w3.org/2000/svg"
 width="1024.000000pt" height="1024.000000pt" viewBox="0 0 1024.000000 1024.000000"
 preserveAspectRatio="xMidYMid meet">

<g transform="translate(0.000000,1024.000000) scale(0.100000,-0.100000)"
fill="#000000" stroke="none">
<path d="M7395 6379 c-281 -41 -534 -173 -734 -385 -236 -249 -345 -513 -358
-864 -14 -377 97 -683 339 -937 232 -242 507 -362 832 -363 l89 0 -6 103 c-4
56 -7 378 -7 715 l0 612 -325 0 -325 0 0 -155 0 -155 165 0 165 0 0 -376 0
-376 -32 6 c-53 10 -169 72 -243 129 -238 183 -369 511 -335 840 38 360 225
634 526 773 40 19 75 34 78 34 3 0 6 -90 6 -200 l0 -200 165 0 165 0 0 405 0
405 -52 -1 c-29 -1 -80 -5 -113 -10z"/>
<path d="M7690 5110 l0 -1280 140 0 140 0 1 758 c0 545 4 749 11 727 28 -79
270 -710 278 -724 7 -14 10 -12 18 9 6 14 74 160 152 325 78 165 154 328 168
363 14 34 29 62 32 62 15 0 21 -188 10 -295 -22 -205 -90 -380 -214 -553 l-66
-92 2 -206 3 -207 90 80 c257 227 411 489 470 803 27 139 25 372 -4 507 -44
210 -126 390 -247 542 -162 202 -406 361 -644 419 -91 23 -228 42 -297 42
l-43 0 0 -1280z m469 840 c36 -17 92 -50 125 -74 76 -54 176 -158 176 -183 0
-26 -153 -394 -161 -385 -3 4 -38 99 -77 212 -39 113 -91 262 -116 333 -51
146 -51 146 53 97z"/>
<path d="M990 5200 l0 -700 343 0 c368 0 407 4 505 54 72 37 138 100 169 164
26 52 28 67 28 167 0 95 -3 116 -23 152 -46 87 -123 151 -207 174 l-37 10 44
28 c54 35 112 99 134 148 12 27 18 67 18 133 1 88 -1 100 -32 162 -52 107
-145 173 -277 197 -34 6 -188 11 -362 11 l-303 0 0 -700z m637 472 c145 -76
135 -267 -17 -335 -38 -17 -72 -21 -212 -25 l-168 -4 0 197 0 197 178 -4 c159
-3 181 -6 219 -26z m21 -577 c60 -18 119 -66 138 -112 33 -78 7 -188 -55 -232
-62 -44 -103 -51 -307 -51 l-194 0 0 205 0 205 183 0 c136 0 197 -4 235 -15z"/>
<path d="M2543 5526 c-234 -57 -402 -277 -403 -527 0 -68 30 -190 63 -256 150
-294 593 -363 841 -131 l51 48 -68 65 -68 66 -47 -34 c-68 -50 -102 -65 -168
-76 -111 -17 -211 15 -278 90 -63 69 -81 119 -81 229 0 82 4 103 26 151 29 62
84 121 144 152 32 17 58 22 130 22 101 0 158 -20 225 -81 l36 -32 73 71 73 72
-54 50 c-123 115 -321 163 -495 121z"/>
<path d="M3513 5525 c-231 -63 -393 -277 -393 -520 1 -245 147 -446 370 -509
311 -87 609 70 695 368 24 82 22 223 -4 307 -55 176 -222 325 -400 359 -75 14
-206 11 -268 -5z m286 -230 c150 -82 212 -278 137 -440 -31 -69 -65 -106 -128
-140 -48 -27 -61 -30 -148 -30 -111 0 -152 16 -214 86 -57 62 -79 120 -84 219
-5 113 20 183 92 256 66 65 117 85 216 81 61 -3 86 -9 129 -32z"/>
<path d="M4757 5526 c-59 -21 -113 -61 -149 -110 -18 -25 -36 -45 -41 -46 -4
0 -6 34 -5 75 l3 75 -112 0 -113 0 0 -510 0 -510 114 0 115 0 3 303 c4 339 6
350 84 437 58 64 104 84 201 84 l83 1 0 101 c0 84 -3 103 -16 108 -28 11 -128
6 -167 -8z"/>
<path d="M5316 5529 c-71 -17 -175 -80 -226 -136 -122 -133 -169 -345 -120
-537 25 -99 61 -165 127 -230 99 -100 221 -146 383 -146 149 0 254 38 351 129
l54 50 -64 65 -65 65 -46 -34 c-79 -58 -135 -78 -225 -78 -63 -1 -91 4 -132
22 -67 30 -125 92 -152 165 -39 106 -73 96 340 96 l362 0 -6 113 c-10 224
-100 366 -278 438 -61 25 -235 35 -303 18z m205 -180 c78 -24 141 -100 155
-188 l7 -41 -247 0 c-278 0 -264 -5 -226 78 60 132 180 190 311 151z"/>
</g>
</svg>
