<?xml version="1.0" encoding="UTF-8"?>
<svg version="1.1" xmlns="http://www.w3.org/2000/svg" width="255" height="275">
<path d="M0 0 C1.03769531 0.50144531 2.07539063 1.00289062 3.14453125 1.51953125 C26.59644295 13.39849483 46.33443392 34.01280326 55.32128906 58.92480469 C64.32069073 86.44096087 62.09082552 113.13464612 49.75 139.1875 C46.18336833 146.035124 41.89939475 152.04777423 37 158 C35.93458984 159.29550781 35.93458984 159.29550781 34.84765625 160.6171875 C22.74703988 174.665281 4.00828501 189.36088837 -15 192 C-16 191 -16 191 -16.10006714 189.1002655 C-16.08879791 188.26820084 -16.07752869 187.43613617 -16.06591797 186.57885742 C-16.05615936 185.63664841 -16.04640076 184.69443939 -16.03634644 183.72367859 C-16.02177399 182.69466934 -16.00720154 181.6656601 -15.9921875 180.60546875 C-15.97464642 178.43034341 -15.95774058 176.25521287 -15.94140625 174.08007812 C-15.91064176 170.64837215 -15.87540123 167.21692729 -15.82861328 163.78540039 C-15.78582285 160.47539205 -15.76269016 157.16568083 -15.7421875 153.85546875 C-15.72356659 152.84872604 -15.70494568 151.84198334 -15.6857605 150.80473328 C-15.64656304 139.71956771 -18.89116219 129.7732305 -22.57421875 119.421875 C-22.90291458 118.48442444 -23.23161041 117.54697388 -23.57026672 116.58111572 C-24.60431903 113.63561383 -25.64575559 110.692789 -26.6875 107.75 C-27.39697834 105.73324662 -28.10596685 103.71632085 -28.81445312 101.69921875 C-30.53732552 96.7974726 -32.2668178 91.89810976 -34 87 C-34.33 87 -34.66 87 -35 87 C-35.33 122.64 -35.66 158.28 -36 195 C-60.00075895 201.00018974 -86.52206447 192.23023502 -107 180 C-129.44574968 165.94370542 -146.36989033 143.12641033 -153.1875 117.6171875 C-155.29516342 108.23403207 -156.62689713 98.62150813 -156 89 C-155.92007813 87.75992188 -155.84015625 86.51984375 -155.7578125 85.2421875 C-153.44113543 57.13845255 -139.08964436 32.35372613 -118 14 C-85.52760637 -11.94507304 -37.65963036 -19.18716934 0 0 Z M-110 38 C-126.90567477 55.96070945 -132.70487354 75.773014 -132.25390625 99.92578125 C-132.02226185 106.21742945 -130.90264121 112.00254403 -129 118 C-128.74476563 118.90363281 -128.48953125 119.80726563 -128.2265625 120.73828125 C-122.56360533 138.68829686 -108.48119604 154.14293865 -92.28125 163.32421875 C-81.57262298 168.79326755 -70.24447782 174 -58 174 C-58 120.87 -58 67.74 -58 13 C-78.0014327 13 -96.20459753 24.30159301 -110 38 Z M-36 13 C-35.43059146 17.9100266 -34.38623622 22.21399215 -32.69921875 26.85546875 C-32.46659332 27.50324783 -32.2339679 28.15102692 -31.99429321 28.81843567 C-31.49227985 30.21546331 -30.98747376 31.61148999 -30.48013306 33.0065918 C-29.11479376 36.76328559 -27.77173661 40.52790298 -26.4296875 44.29296875 C-26.14996597 45.07695038 -25.87024445 45.86093201 -25.58204651 46.66867065 C-21.80357312 57.30499684 -18.2817308 68.02768246 -14.74682617 78.74682617 C-14.50225677 79.48704514 -14.25768738 80.2272641 -14.00570679 80.98991394 C-13.54770784 82.3771061 -13.0911825 83.76478597 -12.63638306 85.1530304 C-11.86024322 87.50632743 -11.10989077 89.78021845 -10 92 C-9.34 92 -8.68 92 -8 92 C-7.56171875 91.1234375 -7.1234375 90.246875 -6.671875 89.34375 C-6.37216797 88.74449707 -6.07246094 88.14524414 -5.76367188 87.52783203 C-5.07695516 86.15406781 -4.39077341 84.78003606 -3.70507812 83.40576172 C-1.41502614 78.81871218 0.88890463 74.23897146 3.203125 69.6640625 C3.74807617 68.58318359 4.29302734 67.50230469 4.85449219 66.38867188 C5.94573638 64.22431692 7.04010629 62.0615349 8.13769531 59.90039062 C8.63881836 58.90458984 9.13994141 57.90878906 9.65625 56.8828125 C10.10806641 55.98965332 10.55988281 55.09649414 11.02539062 54.17626953 C12.13624025 52.09320285 12.13624025 52.09320285 12 50 C12.66 50 13.32 50 14 50 C14.24878906 50.67417969 14.49757812 51.34835938 14.75390625 52.04296875 C15.96122309 54.90798081 17.38257792 57.58693647 18.86938477 60.31445312 C27.11815581 75.74483991 29.00941479 91.68786144 24.75 108.75 C24.19993332 110.51073974 23.61569206 112.26112075 23 114 C22.66097656 114.96292969 22.32195312 115.92585938 21.97265625 116.91796875 C19.35027808 123.74321565 15.88635921 129.53866826 11.671875 135.50390625 C9.86503819 137.96287831 9.86503819 137.96287831 9 141 C8.01 141 7.02 141 6 141 C6.1539624 140.49694336 6.3079248 139.99388672 6.46655273 139.47558594 C7.18651383 136.13443924 7.34787734 132.79385648 7.53515625 129.390625 C7.57813339 128.66381531 7.62111053 127.93700562 7.66539001 127.18817139 C7.8013162 124.87563878 7.93197891 122.56284334 8.0625 120.25 C8.1539494 118.67836516 8.24574238 117.10675027 8.33789062 115.53515625 C8.5625755 111.69032398 8.78254157 107.84524749 9 104 C8.01 104 7.02 104 6 104 C4.45051631 107.7897836 2.90229114 111.58007861 1.35522461 115.37084961 C0.82887689 116.66005301 0.30218695 117.94911675 -0.22485352 119.23803711 C-0.98283647 121.09191626 -1.73948248 122.94634186 -2.49609375 124.80078125 C-2.95169678 125.91622314 -3.4072998 127.03166504 -3.87670898 128.1809082 C-5.64804671 132.62638457 -6.11854101 135.85410878 -6.09765625 140.63671875 C-6.09282227 142.58481445 -6.09282227 142.58481445 -6.08789062 144.57226562 C-6.07953531 145.94401108 -6.07107037 147.31575587 -6.0625 148.6875 C-6.05748335 150.07096195 -6.05292073 151.45442563 -6.04882812 152.83789062 C-6.03702529 156.22530395 -6.02056019 159.61263033 -6 163 C-5.34 163.33 -4.68 163.66 -4 164 C13.556825 155.85086438 25.61078687 138.18037892 33 121 C35.62937566 113.49317222 37.6516258 105.96716655 38 98 C38.03996094 97.32195312 38.07992187 96.64390625 38.12109375 95.9453125 C38.84533959 72.68424012 28.91071424 52.55370296 13.3125 35.9375 C0.70900789 23.75248322 -18.09155737 13 -36 13 Z M-36 81 C-35 83 -35 83 -35 83 Z " fill="#FCFCFC" transform="translate(164,51)"/>
<path d="M0 0 C1.11503906 0.00322266 2.23007813 0.00644531 3.37890625 0.00976562 C4.53777344 0.01814453 5.69664063 0.02652344 6.890625 0.03515625 C8.06496094 0.03966797 9.23929688 0.04417969 10.44921875 0.04882812 C13.34640572 0.06060531 16.24348954 0.07705299 19.140625 0.09765625 C20.15264788 7.2752339 20.02888675 13.90956884 19.140625 21.09765625 C18.41472168 21.10176514 17.68881836 21.10587402 16.94091797 21.11010742 C13.63167584 21.14313115 10.32425316 21.21378651 7.015625 21.28515625 C5.87351563 21.29095703 4.73140625 21.29675781 3.5546875 21.30273438 C-3.4285005 21.34496255 -3.4285005 21.34496255 -9.51953125 24.33203125 C-11.7411969 26.95797329 -13.04093783 28.9367362 -14.171875 32.16015625 C-14.47738281 32.99675781 -14.78289062 33.83335937 -15.09765625 34.6953125 C-15.47470703 35.88447266 -15.47470703 35.88447266 -15.859375 37.09765625 C-16.05402344 37.70480469 -16.24867187 38.31195313 -16.44921875 38.9375 C-18.82751678 51.46320298 -16.9182989 66.37608316 -9.859375 77.09765625 C-5.97761489 82.30678501 -5.97761489 82.30678501 -0.859375 86.09765625 C-0.529375 77.84765625 -0.199375 69.59765625 0.140625 61.09765625 C-2.829375 61.09765625 -5.799375 61.09765625 -8.859375 61.09765625 C-9.8008442 53.77511802 -9.63122054 48.8161117 -8.859375 41.09765625 C0.380625 41.09765625 9.620625 41.09765625 19.140625 41.09765625 C20.06055955 52.00545165 20.29920203 62.78385447 20.265625 73.72265625 C20.26429565 74.97142548 20.26429565 74.97142548 20.26293945 76.24542236 C20.24755085 88.55246137 20.02451127 100.81795053 19.140625 113.09765625 C1.4237203 111.63488354 -12.89520259 102.76612944 -24.54492188 89.67822266 C-36.32108837 75.51795113 -38.96853836 57.92232225 -37.859375 40.09765625 C-36.12202811 26.62585624 -30.35113308 13.97788029 -19.859375 5.09765625 C-16.61960896 3.30412938 -13.42407746 2.07656418 -9.859375 1.09765625 C-9.27357666 0.92186035 -8.68777832 0.74606445 -8.08422852 0.56494141 C-5.34368131 -0.0106547 -2.80050945 -0.01428831 0 0 Z " fill="#FBFCFC" transform="translate(79.859375,97.90234375)"/>
<path d="M0 0 C0.66 0 1.32 0 2 0 C3.66666667 5 5.33333333 10 7 15 C6.34 15 5.68 15 5 15 C4.34 13.35 3.68 11.7 3 10 C2.67 10 2.34 10 2 10 C1.67 18.58 1.34 27.16 1 36 C0.67 36 0.34 36 0 36 C0 24.12 0 12.24 0 0 Z M1 4 C2 6 2 6 2 6 Z " fill="#F1F3F5" transform="translate(127,128)"/>
<path d="M0 0 C0.33 0 0.66 0 1 0 C2.21074074 7.80255144 1.72526532 15.15597666 1 23 C0.67 23 0.34 23 0 23 C-0.1954384 20.10450497 -0.38161395 17.20891002 -0.5625 14.3125 C-0.61857422 13.49587891 -0.67464844 12.67925781 -0.73242188 11.83789062 C-0.98341571 7.70485877 -1.11127743 4.04175718 0 0 Z " fill="#F2F3F7" transform="translate(149,189)"/>
<path d="M0 0 C1.98 0 3.96 0 6 0 C2.44008172 2.96659857 -1.65222543 5.381348 -6 7 C-6.66 6.67 -7.32 6.34 -8 6 C-6 4 -6 4 -3 2 C-2.34 2.33 -1.68 2.66 -1 3 C-0.67 2.01 -0.34 1.02 0 0 Z " fill="#F2F6FB" transform="translate(79,68)"/>
<path d="M0 0 C0.99 0.495 0.99 0.495 2 1 C2.33 1.99 2.66 2.98 3 4 C3.66 3.34 4.32 2.68 5 2 C6.10102197 5.30306592 5.95067299 6.71585695 5 10 C4.01 10.495 4.01 10.495 3 11 C2.49384702 9.73160474 1.99530901 8.46016898 1.5 7.1875 C1.2215625 6.47980469 0.943125 5.77210938 0.65625 5.04296875 C0 3 0 3 0 0 Z " fill="#F3F3F8" transform="translate(136,152)"/>
<path d="M0 0 C0.68707555 2.49064888 1 4.37886292 1 7 C-1 8.6875 -1 8.6875 -3 10 C-2.49287967 6.28111761 -1.88391785 3.26545761 0 0 Z " fill="#F2F4F9" transform="translate(17,103)"/>
</svg>
