<?xml version="1.0" standalone="no"?>
<!DOCTYPE svg PUBLIC "-//W3C//DTD SVG 20010904//EN"
 "http://www.w3.org/TR/2001/REC-SVG-20010904/DTD/svg10.dtd">
<svg version="1.0" xmlns="http://www.w3.org/2000/svg"
 width="1024.000000pt" height="1024.000000pt" viewBox="0 0 1024.000000 1024.000000"
 preserveAspectRatio="xMidYMid meet">

<g transform="translate(0.000000,1024.000000) scale(0.100000,-0.100000)"
fill="#000000" stroke="none">
<path d="M7420 6453 c-176 -28 -293 -64 -425 -128 -392 -191 -677 -576 -750
-1013 -14 -82 -16 -140 -12 -270 8 -244 45 -393 148 -593 67 -131 145 -234
257 -340 173 -165 338 -256 567 -314 92 -22 329 -49 348 -38 4 2 7 344 7 759
l0 754 -350 0 -350 0 0 -165 0 -165 168 -2 167 -3 3 -383 2 -383 -22 6 c-61
18 -175 81 -240 134 -465 369 -463 1146 5 1548 66 57 161 116 230 142 l28 11
-1 -213 -2 -212 181 -3 181 -2 0 440 0 440 -57 -1 c-32 -1 -69 -4 -83 -6z
m130 -433 l0 -430 -170 0 -170 0 0 220 c0 121 -2 220 -5 220 -3 0 -45 -20 -93
-44 -165 -83 -292 -205 -393 -379 -57 -96 -95 -197 -120 -320 -29 -143 -23
-359 13 -497 70 -261 239 -475 463 -584 50 -25 100 -47 113 -51 l22 -6 0 400
0 401 -170 0 -171 0 3 153 3 152 338 3 337 2 0 -746 0 -747 -107 6 c-332 21
-610 150 -839 390 -228 238 -348 529 -361 877 -8 225 31 417 128 627 122 265
356 511 609 638 152 77 371 135 538 143 l32 2 0 -430z"/>
<path d="M7670 5110 l0 -1350 150 0 c83 0 153 -1 158 -2 4 -2 9 345 12 771 l5
774 42 -114 c171 -464 237 -628 250 -615 3 3 1 11 -4 18 -6 7 -38 85 -71 173
-33 88 -82 214 -107 280 -26 66 -64 172 -86 235 l-39 115 0 -812 0 -813 -150
0 -150 0 0 1341 0 1342 93 -7 c266 -19 476 -93 687 -242 261 -183 458 -484
525 -799 45 -214 40 -457 -15 -669 -62 -240 -165 -423 -337 -598 -68 -70 -223
-195 -223 -181 -1 4 0 104 0 222 l1 214 39 45 c51 57 121 164 147 222 23 53
56 161 74 245 16 72 17 405 1 450 -6 17 -11 23 -11 12 -2 -34 -226 -531 -331
-733 -34 -66 -34 -68 -19 -58 6 4 41 68 76 143 132 275 216 458 240 521 14 36
29 69 34 74 15 17 22 -170 10 -292 -23 -238 -106 -442 -237 -582 l-44 -47 2
-233 3 -232 65 43 c94 62 276 248 342 349 123 189 183 351 214 579 70 527
-125 1000 -541 1311 -197 148 -497 250 -732 250 l-73 0 0 -1350z"/>
<path d="M8070 6035 c0 -4 125 -364 196 -567 27 -76 52 -138 55 -138 13 0 180
392 174 410 -9 28 -139 147 -214 195 -57 37 -211 109 -211 100z m131 -71 c74
-37 188 -119 224 -162 13 -15 32 -37 43 -50 l20 -23 -58 -132 c-32 -73 -69
-156 -82 -186 l-24 -54 -12 29 c-17 43 -93 258 -161 453 -69 196 -72 187 50
125z"/>
<path d="M757 6023 c-4 -3 -7 -363 -7 -800 l0 -793 383 0 c420 0 445 3 565 61
86 42 174 126 212 202 84 170 55 343 -77 476 -32 31 -73 64 -90 72 -18 7 -33
16 -32 19 0 3 23 23 51 45 36 28 62 60 87 109 34 66 36 73 36 170 0 98 -2 105
-38 178 -60 123 -168 205 -319 244 -51 14 -130 17 -414 20 -193 2 -354 1 -357
-3z m768 -33 c107 -27 159 -55 227 -122 165 -160 165 -420 0 -554 -30 -24 -60
-44 -68 -44 -8 0 -14 -4 -14 -10 0 -5 7 -10 16 -10 25 0 130 -76 168 -123 93
-114 114 -240 62 -382 -25 -68 -39 -90 -95 -146 -68 -68 -126 -104 -221 -135
-48 -16 -103 -18 -447 -22 l-393 -3 0 785 0 786 343 0 c310 0 351 -2 422 -20z"/>
<path d="M1040 5581 l0 -211 178 0 c211 0 266 12 323 69 73 73 79 203 12 274
-58 61 -97 70 -315 75 l-198 4 0 -211z m435 164 c36 -18 69 -43 82 -63 64 -97
20 -232 -90 -278 -33 -14 -81 -18 -229 -22 l-188 -4 0 202 0 202 183 -4 c179
-3 183 -3 242 -33z"/>
<path d="M1040 4905 l0 -235 208 0 c247 0 289 9 356 73 101 97 84 267 -34 342
-69 43 -141 55 -344 55 l-186 0 0 -235z m458 201 c77 -25 136 -86 152 -159 11
-48 11 -63 -4 -109 -22 -65 -53 -100 -120 -130 -47 -21 -67 -23 -263 -26
l-213 -4 0 227 0 227 198 -4 c148 -4 210 -9 250 -22z"/>
<path d="M2471 5605 c-147 -34 -291 -137 -374 -267 -116 -181 -128 -432 -30
-627 64 -127 197 -238 338 -283 134 -42 318 -33 432 21 73 36 155 102 179 147
l19 34 -65 65 c-35 36 -69 65 -74 65 -5 0 -32 -15 -60 -34 -156 -102 -328 -95
-442 18 -141 142 -133 405 18 541 63 57 120 78 208 78 87 -1 140 -19 220 -75
35 -25 62 -37 72 -33 23 9 118 134 118 155 0 21 -66 83 -135 127 -111 70 -289
99 -424 68z m274 -19 c104 -27 220 -99 261 -161 16 -24 15 -26 -35 -89 -53
-66 -76 -83 -87 -65 -19 31 -128 87 -190 99 -216 41 -390 -97 -411 -326 -15
-164 57 -308 185 -371 51 -25 67 -28 152 -27 80 0 104 5 151 26 30 14 70 38
88 54 l32 27 65 -64 c35 -35 64 -66 64 -70 0 -12 -108 -111 -146 -134 -243
-145 -602 -62 -760 176 -72 109 -96 190 -97 329 -2 132 13 193 71 304 70 133
217 251 363 290 69 19 229 20 294 2z"/>
<path d="M3525 5610 c-264 -57 -454 -276 -479 -550 -8 -79 13 -223 44 -302 64
-170 214 -301 392 -343 74 -17 206 -19 280 -4 29 6 91 29 137 51 147 70 259
204 310 372 29 94 29 267 1 357 -56 182 -214 344 -389 400 -73 23 -230 34
-296 19z m305 -36 c127 -43 255 -157 328 -294 87 -163 82 -396 -14 -568 -42
-75 -140 -177 -209 -217 -129 -76 -287 -102 -428 -71 -273 61 -446 285 -447
577 0 120 13 181 61 278 71 144 194 251 349 303 74 24 279 20 360 -8z"/>
<path d="M3560 5371 c-196 -60 -293 -302 -210 -526 32 -87 114 -165 196 -188
111 -31 200 -14 278 54 59 52 91 107 110 189 50 210 -32 397 -201 460 -54 20
-127 25 -173 11z m191 -32 c109 -47 181 -171 183 -314 3 -209 -116 -363 -281
-368 -93 -3 -149 19 -214 82 -72 72 -101 142 -103 256 -3 182 86 321 232 362
58 16 117 10 183 -18z"/>
<path d="M4800 5606 c-77 -17 -119 -40 -167 -94 l-43 -47 0 58 0 57 -140 0
-140 0 0 -575 0 -575 140 0 c105 0 140 3 141 13 0 6 1 158 2 337 2 316 3 327
26 384 45 112 142 177 271 181 l55 2 3 127 c2 96 0 127 -10 130 -38 12 -89 13
-138 2z m140 -130 l0 -125 -33 6 c-89 14 -212 -42 -268 -123 -51 -74 -59 -141
-59 -486 l0 -308 -130 0 -130 0 0 565 0 565 130 0 130 0 1 -82 c1 -81 1 -82
15 -50 23 52 95 117 155 140 35 13 78 21 122 21 l67 1 0 -124z"/>
<path d="M5356 5605 c-199 -51 -361 -224 -412 -441 -24 -101 -15 -272 20 -381
40 -122 136 -241 252 -309 159 -93 402 -98 566 -12 68 36 178 133 178 157 0 9
-31 47 -69 85 l-69 69 -59 -41 c-83 -59 -133 -75 -233 -76 -69 -1 -95 4 -138
23 -73 33 -137 106 -160 185 -11 33 -17 63 -15 65 2 3 172 5 377 5 206 1 378
5 383 9 4 5 8 66 7 135 0 105 -4 139 -23 192 -54 158 -168 272 -320 322 -77
26 -211 32 -285 13z m278 -27 c99 -28 176 -84 249 -180 64 -84 105 -257 91
-384 l-6 -64 -384 0 c-322 0 -384 -2 -384 -14 0 -8 9 -43 20 -79 66 -214 332
-285 541 -145 l60 40 57 -53 c85 -79 84 -75 14 -139 -79 -73 -157 -114 -254
-134 -208 -43 -385 9 -528 153 -122 122 -164 235 -163 436 0 103 4 132 26 200
50 151 154 273 290 340 114 56 232 64 371 23z"/>
<path d="M5429 5381 c-98 -20 -188 -111 -213 -213 l-6 -28 260 0 c244 0 261 1
256 18 -3 9 -10 37 -16 62 -30 114 -156 187 -281 161z m162 -38 c60 -31 105
-92 116 -156 l6 -37 -242 0 c-159 0 -241 4 -241 10 0 6 7 27 15 46 60 143 213
204 346 137z"/>
</g>
</svg>
